<svg width="20" height="15" viewBox="0 0 20 15" fill="none" xmlns="http://www.w3.org/2000/svg">
<path d="M19.6211 4.71726C19.7734 4.60193 20 4.70982 20 4.89211V12.5C20 13.4859 19.1602 14.2857 18.125 14.2857H1.875C0.839844 14.2857 0 13.4859 0 12.5V4.89583C0 4.70982 0.222656 4.60565 0.378906 4.72098C1.25391 5.3683 2.41406 6.19048 6.39844 8.94717C7.22266 9.52009 8.61328 10.7254 10 10.718C11.3945 10.7292 12.8125 9.49777 13.6055 8.94717C17.5898 6.19048 18.7461 5.36458 19.6211 4.71726ZM10 9.52381C10.9062 9.53869 12.2109 8.4375 12.8672 7.98363C18.0508 4.40104 18.4453 4.08854 19.6406 3.19568C19.8672 3.02827 20 2.76786 20 2.49256V1.78571C20 0.799851 19.1602 0 18.125 0H1.875C0.839844 0 0 0.799851 0 1.78571V2.49256C0 2.76786 0.132812 3.02455 0.359375 3.19568C1.55469 4.08482 1.94922 4.40104 7.13281 7.98363C7.78906 8.4375 9.09375 9.53869 10 9.52381Z" fill="#AFADAD"/>
</svg>
