<svg width="80" height="63" viewBox="0 0 80 63" fill="none" xmlns="http://www.w3.org/2000/svg">
<path d="M66.6667 54V56.25C66.6667 59.978 63.6819 63 60 63H6.66667C2.98472 63 0 59.978 0 56.25V20.25C0 16.522 2.98472 13.5 6.66667 13.5H8.88889V42.75C8.88889 48.9533 13.8733 54 20 54H66.6667ZM80 42.75V6.75C80 3.02203 77.0153 0 73.3333 0H20C16.3181 0 13.3333 3.02203 13.3333 6.75V42.75C13.3333 46.478 16.3181 49.5 20 49.5H73.3333C77.0153 49.5 80 46.478 80 42.75ZM35.5556 13.5C35.5556 17.228 32.5708 20.25 28.8889 20.25C25.2069 20.25 22.2222 17.228 22.2222 13.5C22.2222 9.77203 25.2069 6.75 28.8889 6.75C32.5708 6.75 35.5556 9.77203 35.5556 13.5ZM22.2222 33.75L29.9326 25.9432C30.5835 25.2842 31.6388 25.2842 32.2897 25.9432L37.7778 31.5L56.5993 12.4432C57.2501 11.7842 58.3054 11.7842 58.9564 12.4432L71.1111 24.75V40.5H22.2222V33.75Z" fill="#343434"/>
</svg>
